<mxfile host="65bd71144e">
    <diagram id="5Pzfxf7ZaMOHbHDBpuRw" name="Page-1">
        <mxGraphModel dx="994" dy="1557" grid="1" gridSize="10" guides="1" tooltips="1" connect="1" arrows="1" fold="1" page="1" pageScale="1" pageWidth="850" pageHeight="1100" math="0" shadow="0">
            <root>
                <mxCell id="0"/>
                <mxCell id="1" parent="0"/>
                <mxCell id="2" value="&lt;p style=&quot;line-height: 60%;&quot;&gt;&lt;b&gt;&lt;font face=&quot;Times New Roman&quot;&gt;External Apps&lt;/font&gt;&lt;/b&gt;&lt;/p&gt;" style="rounded=0;whiteSpace=wrap;html=1;align=center;" vertex="1" parent="1">
                    <mxGeometry x="10" y="40" width="370" height="190" as="geometry"/>
                </mxCell>
                <mxCell id="3" value="REST , SOAP,&amp;nbsp;&lt;br&gt;Bulk APIS" style="rounded=0;whiteSpace=wrap;html=1;fontFamily=Times New Roman;" vertex="1" parent="1">
                    <mxGeometry x="30" y="130" width="100" height="60" as="geometry"/>
                </mxCell>
                <mxCell id="4" value="Pub Sub Apis" style="rounded=0;whiteSpace=wrap;html=1;fontFamily=Times New Roman;" vertex="1" parent="1">
                    <mxGeometry x="250" y="130" width="100" height="60" as="geometry"/>
                </mxCell>
                <mxCell id="7" value="&lt;p style=&quot;line-height: 60%;&quot;&gt;&lt;font face=&quot;Times New Roman&quot;&gt;&lt;b&gt;Platform Tools&lt;/b&gt;&lt;/font&gt;&lt;/p&gt;" style="rounded=0;whiteSpace=wrap;html=1;align=center;" vertex="1" parent="1">
                    <mxGeometry x="490" y="40" width="370" height="190" as="geometry"/>
                </mxCell>
                <mxCell id="8" value="Apex" style="rounded=0;whiteSpace=wrap;html=1;fontFamily=Times New Roman;" vertex="1" parent="1">
                    <mxGeometry x="510" y="140" width="100" height="60" as="geometry"/>
                </mxCell>
                <mxCell id="9" value="Flow" style="rounded=0;whiteSpace=wrap;html=1;fontFamily=Times New Roman;" vertex="1" parent="1">
                    <mxGeometry x="740" y="140" width="100" height="60" as="geometry"/>
                </mxCell>
                <mxCell id="10" value="" style="endArrow=classic;html=1;fontFamily=Times New Roman;exitX=0.459;exitY=1.015;exitDx=0;exitDy=0;exitPerimeter=0;" edge="1" parent="1" source="2">
                    <mxGeometry width="50" height="50" relative="1" as="geometry">
                        <mxPoint x="180" y="240" as="sourcePoint"/>
                        <mxPoint x="180" y="290" as="targetPoint"/>
                        <Array as="points">
                            <mxPoint x="180" y="260"/>
                        </Array>
                    </mxGeometry>
                </mxCell>
                <mxCell id="12" value="" style="endArrow=classic;html=1;fontFamily=Times New Roman;exitX=0.459;exitY=1.015;exitDx=0;exitDy=0;exitPerimeter=0;" edge="1" parent="1">
                    <mxGeometry width="50" height="50" relative="1" as="geometry">
                        <mxPoint x="700" y="230.00000000000003" as="sourcePoint"/>
                        <mxPoint x="700.1700000000001" y="287.15" as="targetPoint"/>
                        <Array as="points">
                            <mxPoint x="700" y="260"/>
                        </Array>
                    </mxGeometry>
                </mxCell>
                <mxCell id="14" value="Salesforce Event Bus" style="rounded=0;whiteSpace=wrap;html=1;fontFamily=Times New Roman;" vertex="1" parent="1">
                    <mxGeometry x="20" y="290" width="840" height="40" as="geometry"/>
                </mxCell>
                <mxCell id="15" value="&lt;p style=&quot;line-height: 60%;&quot;&gt;&lt;b&gt;&lt;font face=&quot;Times New Roman&quot;&gt;External Apps&lt;/font&gt;&lt;/b&gt;&lt;/p&gt;" style="rounded=0;whiteSpace=wrap;html=1;align=center;" vertex="1" parent="1">
                    <mxGeometry x="20" y="390" width="370" height="190" as="geometry"/>
                </mxCell>
                <mxCell id="16" value="Streaming API" style="rounded=0;whiteSpace=wrap;html=1;fontFamily=Times New Roman;" vertex="1" parent="1">
                    <mxGeometry x="40" y="490" width="100" height="60" as="geometry"/>
                </mxCell>
                <mxCell id="17" value="PubSub API" style="rounded=0;whiteSpace=wrap;html=1;fontFamily=Times New Roman;" vertex="1" parent="1">
                    <mxGeometry x="260" y="490" width="100" height="60" as="geometry"/>
                </mxCell>
                <mxCell id="18" value="&lt;p style=&quot;line-height: 60%;&quot;&gt;&lt;font face=&quot;Times New Roman&quot;&gt;&lt;b&gt;Platform Tools&lt;/b&gt;&lt;/font&gt;&lt;/p&gt;" style="rounded=0;whiteSpace=wrap;html=1;align=center;" vertex="1" parent="1">
                    <mxGeometry x="510" y="390" width="370" height="190" as="geometry"/>
                </mxCell>
                <mxCell id="19" value="Apex" style="rounded=0;whiteSpace=wrap;html=1;fontFamily=Times New Roman;" vertex="1" parent="1">
                    <mxGeometry x="530" y="420" width="100" height="60" as="geometry"/>
                </mxCell>
                <mxCell id="20" value="Flow" style="rounded=0;whiteSpace=wrap;html=1;fontFamily=Times New Roman;" vertex="1" parent="1">
                    <mxGeometry x="760" y="410" width="100" height="60" as="geometry"/>
                </mxCell>
                <mxCell id="21" value="Lightning" style="rounded=0;whiteSpace=wrap;html=1;fontFamily=Times New Roman;" vertex="1" parent="1">
                    <mxGeometry x="550" y="510" width="100" height="60" as="geometry"/>
                </mxCell>
                <mxCell id="22" value="" style="endArrow=classic;html=1;fontFamily=Times New Roman;exitX=0.459;exitY=1.015;exitDx=0;exitDy=0;exitPerimeter=0;" edge="1" parent="1" target="16">
                    <mxGeometry width="50" height="50" relative="1" as="geometry">
                        <mxPoint x="89.59999999999994" y="330" as="sourcePoint"/>
                        <mxPoint x="89.77000000000001" y="387.15" as="targetPoint"/>
                        <Array as="points">
                            <mxPoint x="89.77000000000001" y="357.15"/>
                        </Array>
                    </mxGeometry>
                </mxCell>
                <mxCell id="23" value="" style="endArrow=classic;html=1;fontFamily=Times New Roman;exitX=0.459;exitY=1.015;exitDx=0;exitDy=0;exitPerimeter=0;" edge="1" parent="1" target="19">
                    <mxGeometry width="50" height="50" relative="1" as="geometry">
                        <mxPoint x="579.5999999999999" y="330" as="sourcePoint"/>
                        <mxPoint x="579.77" y="387.15" as="targetPoint"/>
                        <Array as="points">
                            <mxPoint x="579.77" y="357.15"/>
                        </Array>
                    </mxGeometry>
                </mxCell>
                <mxCell id="24" value="" style="endArrow=classic;html=1;fontFamily=Times New Roman;exitX=0.459;exitY=1.015;exitDx=0;exitDy=0;exitPerimeter=0;" edge="1" parent="1">
                    <mxGeometry width="50" height="50" relative="1" as="geometry">
                        <mxPoint x="809.5999999999999" y="330" as="sourcePoint"/>
                        <mxPoint x="810" y="410" as="targetPoint"/>
                        <Array as="points">
                            <mxPoint x="809.77" y="357.15"/>
                        </Array>
                    </mxGeometry>
                </mxCell>
                <mxCell id="25" value="" style="endArrow=classic;html=1;fontFamily=Times New Roman;exitX=0.459;exitY=1.015;exitDx=0;exitDy=0;exitPerimeter=0;entryX=0.874;entryY=-0.023;entryDx=0;entryDy=0;entryPerimeter=0;" edge="1" parent="1" target="21">
                    <mxGeometry width="50" height="50" relative="1" as="geometry">
                        <mxPoint x="639.9999999999999" y="330" as="sourcePoint"/>
                        <mxPoint x="640.3256865912762" y="420" as="targetPoint"/>
                        <Array as="points">
                            <mxPoint x="640.17" y="357.15"/>
                        </Array>
                    </mxGeometry>
                </mxCell>
                <mxCell id="26" value="" style="endArrow=classic;html=1;fontFamily=Times New Roman;exitX=0.459;exitY=1.015;exitDx=0;exitDy=0;exitPerimeter=0;" edge="1" parent="1">
                    <mxGeometry width="50" height="50" relative="1" as="geometry">
                        <mxPoint x="309.5999999999999" y="330" as="sourcePoint"/>
                        <mxPoint x="309.95762972060174" y="490" as="targetPoint"/>
                        <Array as="points">
                            <mxPoint x="309.77" y="357.15"/>
                        </Array>
                    </mxGeometry>
                </mxCell>
                <mxCell id="28" value="publishers" style="shape=hexagon;perimeter=hexagonPerimeter2;whiteSpace=wrap;html=1;fixedSize=1;fontFamily=Times New Roman;" vertex="1" parent="1">
                    <mxGeometry x="375" y="-110" width="120" height="80" as="geometry"/>
                </mxCell>
                <mxCell id="29" value="Subscribers" style="shape=hexagon;perimeter=hexagonPerimeter2;whiteSpace=wrap;html=1;fixedSize=1;fontFamily=Times New Roman;" vertex="1" parent="1">
                    <mxGeometry x="390" y="660" width="120" height="80" as="geometry"/>
                </mxCell>
                <mxCell id="30" value="" style="shape=curlyBracket;whiteSpace=wrap;html=1;rounded=1;labelPosition=left;verticalLabelPosition=middle;align=right;verticalAlign=middle;fontFamily=Times New Roman;direction=north;" vertex="1" parent="1">
                    <mxGeometry x="20" y="600" width="850" height="60" as="geometry"/>
                </mxCell>
                <mxCell id="31" value="" style="shape=curlyBracket;whiteSpace=wrap;html=1;rounded=1;labelPosition=left;verticalLabelPosition=middle;align=right;verticalAlign=middle;fontFamily=Times New Roman;direction=south;" vertex="1" parent="1">
                    <mxGeometry x="10" y="-30" width="850" height="60" as="geometry"/>
                </mxCell>
            </root>
        </mxGraphModel>
    </diagram>
</mxfile>